<svg xmlns="http://www.w3.org/2000/svg" width="24" height="24" viewBox="0 0 128 128" fill="none" aria-hidden="true">
  <path fill="#F7F6DF" d="M15.1 62.9c.1-5.6 2.2-11.3 6.7-15.9C34.3 33.9 46.9 20.9 59.4 7.8 64 3 69.1.9 75.3 4.1c5.8 2.9 8.2 8.3 6.4 15.7-1.2 5-1.5 7.8 4.9 8 1.4 0 3 0 4.3 0 17.8-.4 20.9 8 21.7 22.5.6 12 .8 24-1 35.9-1.2 7.8-6.6 13.1-14.5 13.8-3.5.3-7 1.1-10.5.8-6.2-.4-6 2.6-4.9 7.2 1.8 7.5-.5 12.9-6.1 15.9-6.2 3.2-11.3 1.4-15.9-3.5C47.2 107.3 34.5 94.3 22 81.2c-4.8-4.8-7-10.7-6.9-18.3Z"/>
</svg>
