<svg fill="none" height="512" viewBox="0 0 22 19" width="512" xmlns="http://www.w3.org/2000/svg"><g fill="rgb(0,0,0)"><path d="m10.5582 7.66553c.089-.28321.445-.28321.534 0 .2326.73924.9096 1.26233 1.698 1.26233.0768 0 .126.0228.1627.05211.0418.03343.0816.08802.1043.16029.0459.14596.0064.28084-.11.3682-.6227.46731-.8719 1.28234-.6405 2.01794.0509.1619-.0067.2907-.1101.3682-.0529.0397-.1081.057-.1541.0584-.0396.0013-.0928-.008-.1599-.0584-.6288-.4719-1.486-.4719-2.11481 0-.06713.0504-.12026.0597-.15995.0584-.04599-.0014-.10118-.0187-.15408-.0584-.10334-.0775-.16093-.2063-.11003-.3682.23138-.7356-.01787-1.55063-.64052-2.01794-.1164-.08736-.15594-.22224-.11003-.3682.02273-.07227.06247-.12686.10431-.16029.03668-.02931.08591-.05211.16273-.05211.78837 0 1.46538-.52309 1.69798-1.26233z"/><path clip-rule="evenodd" d="m.0751953 6.14757c0-2.86881 2.3256347-5.194445 5.1944447-5.194445h11.11116c2.8688 0 5.1944 2.325635 5.1944 5.194445 0 .83173-.477 1.58976-1.2268 1.94968l-.4874.23394c-1.151.55249-1.151 2.19141 0 2.74391l.4874.2339c.7498.3599 1.2268 1.1179 1.2268 1.9497 0 2.8688-2.3256 5.1944-5.1944 5.1944h-11.11116c-2.86881 0-5.1944447-2.3256-5.1944447-5.1944 0-.8318.4769807-1.5898 1.2268047-1.9497l.48737-.2339c1.15103-.5525 1.15103-2.19142 0-2.74391l-.48737-.23394c-.749824-.35992-1.2268047-1.11795-1.2268047-1.94968zm12.4479047 1.06789c-.5294-1.68311-2.86642-1.68311-3.39583 0-.04408.14012-.16033.2124-.26705.2124-1.77548 0-2.39986 2.27278-1.0574 3.28034.10148.0761.15525.2244.11003.3682-.25835.8213.0741 1.5928.64052 2.0179.56993.4278 1.41285.5269 2.11483 0 .0953-.0715.2187-.0715.314 0 .702.5269 1.5449.4278 2.1148 0 .5664-.4251.8989-1.1966.6405-2.0179-.0452-.1438.0086-.2921.1101-.3682 1.3424-1.00756.718-3.28034-1.0574-3.28034-.1068 0-.223-.07228-.2671-.2124z" fill-rule="evenodd"/></g></svg>