<svg id="ICON" viewBox="0 0 32 32" xmlns="http://www.w3.org/2000/svg"><path fill="#173f34" d="m28.246 14.356c-.675.421-1.452.644-2.246.644-1.197 0-2.307-.497-3.094-1.334-.949.867-2.18 1.362-3.444 1.362-.194 0-.388-.012-.582-.035-1.305-.158-2.258-.811-2.879-1.416-.622.604-1.574 1.257-2.879 1.416-1.467.176-2.932-.327-4.026-1.327-.787.837-1.897 1.334-3.094 1.334-.779 0-1.543-.215-2.209-.621-1.351-.822-1.778-2.612-.969-4.017l2.966-6.593c.483-1.074 1.557-1.769 2.736-1.769h15.152c1.205 0 2.289.716 2.76 1.825l2.803 6.583c.748 1.377.31 3.137-.995 3.949zm-14.246 15.644h4v-7h-4zm14-13.352v10.352c0 1.654-1.346 3-3 3h-5v-7c0-1.103-.897-2-2-2h-4c-1.103 0-2 .897-2 2v7h-5c-1.654 0-3-1.346-3-3v-10.352c1.696.558 3.617.391 5.149-.499 1.285.707 2.754 1.006 4.212.829.933-.113 1.825-.418 2.639-.898.814.48 1.706.786 2.64.899.274.033.548.049.821.049 1.189 0 2.352-.306 3.391-.878 1.532.89 3.452 1.056 5.148.499zm-17 3.352c0-.552-.448-1-1-1h-3c-.552 0-1 .448-1 1s.448 1 1 1h3c.552 0 1-.448 1-1z"/></svg>
